<svg width="40" height="40" viewBox="0 0 40 40" fill="none" xmlns="http://www.w3.org/2000/svg">
<g id="apple">
<g clip-path="url(#clip0_4773_646)">
<path id="Vector" d="M0 0H40V40H0V0Z" fill="url(#paint0_linear_4773_646)"/>
<path id="Vector_2" d="M28.8889 23.5487C28.5339 24.5726 28.0259 25.5369 27.3822 26.4087C26.7844 27.2153 26.2955 27.7731 25.92 28.082C25.3378 28.5931 24.7111 28.8531 24.0422 28.8664C23.56 28.8664 22.98 28.7353 22.3044 28.4731C21.7116 28.2288 21.0788 28.0962 20.4377 28.082C19.8422 28.082 19.2022 28.2109 18.5178 28.4731C17.8311 28.7353 17.2778 28.8731 16.8555 28.8864C16.2155 28.9131 15.5733 28.6465 14.9355 28.082C14.5266 27.7465 14.0178 27.1665 13.4066 26.3487C12.7207 25.4189 12.1755 24.393 11.7889 23.3042C11.3535 22.1456 11.1241 20.9197 11.1111 19.682C11.1111 18.342 11.4178 17.1842 12.0289 16.2153C12.508 15.4463 13.1734 14.8106 13.9635 14.367C14.7536 13.9234 15.6428 13.6863 16.5489 13.6776C17.06 13.6776 17.7289 13.8287 18.56 14.122C19.3889 14.4176 19.92 14.5664 20.1533 14.5664C20.3289 14.5664 20.92 14.3909 21.9222 14.042C22.8689 13.7198 23.6711 13.5865 24.3266 13.6376C26.1022 13.7753 27.4355 14.4376 28.3222 15.6331C26.7355 16.5442 25.9489 17.822 25.9644 19.4598C25.98 20.7353 26.4666 21.7998 27.4266 22.642C27.8622 23.0331 28.3489 23.3331 28.8889 23.5487ZM24.4222 8.88867C24.4355 9.02201 24.4444 9.15534 24.4444 9.28867C24.4444 10.2887 24.0577 11.222 23.2889 12.0887C22.3622 13.1153 21.24 13.7109 20.0222 13.6153C20.0067 13.49 19.9993 13.3638 20 13.2376C20 12.2753 20.44 11.2487 21.2222 10.4087C21.6133 9.98201 22.1111 9.63089 22.7133 9.34645C23.2483 9.08577 23.8285 8.93036 24.4222 8.88867Z" fill="white"/>
</g>
</g>
<defs>
<linearGradient id="paint0_linear_4773_646" x1="7.44222" y1="6.93778" x2="48.6756" y2="54.2978" gradientUnits="userSpaceOnUse">
<stop stop-color="#1A1E21"/>
<stop offset="1" stop-color="#06060A"/>
</linearGradient>
<clipPath id="clip0_4773_646">
<rect width="40" height="40" rx="20" fill="white"/>
</clipPath>
</defs>
</svg>
