<svg width="40" height="40" viewBox="0 0 40 40" fill="none" xmlns="http://www.w3.org/2000/svg">
<g id="nvidia">
<g clip-path="url(#clip0_4773_846)">
<path id="Vector" d="M0 0H40V40H0V0Z" fill="url(#paint0_linear_4773_846)"/>
<path id="Vector_2" d="M9.39107 18.7647C9.39107 18.7647 11.8533 15.0047 16.6666 14.6336V13.3336C11.3333 13.7647 6.66663 18.4891 6.66663 18.4891C6.66663 18.4891 9.33329 25.9713 16.6666 26.6669V25.2847C11.2844 24.6024 9.39107 18.7647 9.39107 18.7647ZM16.6666 22.6758V23.9402C12.6 23.2091 11.42 18.9491 11.42 18.9491C11.42 18.9491 13.4222 16.7713 16.6666 16.4158V17.8047C14.9644 17.598 13.5777 19.2002 13.5777 19.2002C13.5777 19.2002 14.3733 21.898 16.6666 22.6736V22.6758ZM16.6666 11.1113V13.3336C16.8222 13.3224 16.9288 13.3113 17.0866 13.3069C23.1488 13.1002 27.0977 18.4913 27.0977 18.4913C27.0977 18.4913 22.5622 24.0469 17.8355 24.0469C17.4022 24.0469 17.0466 24.0091 16.6666 23.9402V25.2847C16.9933 25.3269 17.28 25.3513 17.6311 25.3513C22.0311 25.3513 25.2088 23.2269 28.2911 20.5469C28.8022 20.9602 30.8911 21.9624 31.3222 22.4002C28.3933 24.8713 21.5666 26.7247 17.7 26.7247C17.3266 26.7247 17.0177 26.7024 16.6666 26.6669V28.8891H33.3333V11.1113H16.6666ZM16.6666 16.4158V14.6336C16.8222 14.6224 16.9266 14.6136 17.0866 14.6113C21.4466 14.4713 24.3066 18.5602 24.3066 18.5602C24.3066 18.5602 21.2177 22.8824 17.9066 22.8824C17.4288 22.8824 17.0511 22.8047 16.6666 22.6736V17.8047C18.3644 18.0091 18.6555 18.7669 19.6755 20.4802L21.9422 18.5536C21.9422 18.5536 20.2888 16.3647 17.4955 16.3647C17.1911 16.3647 16.9511 16.3869 16.6666 16.4158Z" fill="#76B900"/>
</g>
</g>
<defs>
<linearGradient id="paint0_linear_4773_846" x1="7.44222" y1="6.93778" x2="48.6756" y2="54.2978" gradientUnits="userSpaceOnUse">
<stop stop-color="#1A1E21"/>
<stop offset="1" stop-color="#06060A"/>
</linearGradient>
<clipPath id="clip0_4773_846">
<rect width="40" height="40" rx="20" fill="white"/>
</clipPath>
</defs>
</svg>
